<svg width="100" height="32" viewBox="0 0 100 32" fill="none" xmlns="http://www.w3.org/2000/svg">
<rect width="100" height="32" rx="16" fill="#F9F9F9"/>
<path d="M23.8693 21L24.804 18.3054H28.7812L29.7109 21H31.3416L27.6776 10.8182H25.9027L22.2386 21H23.8693ZM25.2514 17.0128L26.7528 12.6676H26.8324L28.3338 17.0128H25.2514ZM32.6926 21H34.1792V17.9474H35.1436L37.4455 21H39.29L36.2971 17.0774L39.2551 13.3636H37.4157L34.8951 16.5653H34.1792V13.3636H32.6926V21ZM40.4446 21H41.9311V17.9474H42.8956L45.1974 21H47.0419L44.049 17.0774L47.0071 13.3636H45.1676L42.647 16.5653H41.9311V13.3636H40.4446V21ZM50.4189 21.169C51.6816 21.169 52.3926 20.5277 52.676 19.956H52.7356V21H54.1873V15.929C54.1873 13.7067 52.4373 13.2642 51.2243 13.2642C49.8422 13.2642 48.5694 13.821 48.0723 15.2131L49.4693 15.5312C49.688 14.9893 50.2449 14.4673 51.2441 14.4673C52.2037 14.4673 52.6958 14.9695 52.6958 15.8345V15.8693C52.6958 16.4112 52.139 16.4013 50.7669 16.5604C49.3201 16.7294 47.8386 17.1072 47.8386 18.8423C47.8386 20.3438 48.9672 21.169 50.4189 21.169ZM50.742 19.9759C49.9018 19.9759 49.2953 19.598 49.2953 18.8622C49.2953 18.0668 50.0012 17.7834 50.8613 17.669C51.3436 17.6044 52.487 17.4751 52.7008 17.2614V18.2457C52.7008 19.1506 51.9799 19.9759 50.742 19.9759ZM56.8335 23.8636C58.0614 23.8636 58.837 23.2223 59.2795 22.0192L62.4364 13.3786L60.8306 13.3636L58.8967 19.2898H58.8171L56.8832 13.3636H55.2923L58.0863 21.0994L57.9023 21.6065C57.5245 22.6207 56.9925 22.7053 56.1772 22.4815L55.8192 23.6996C55.9982 23.7791 56.386 23.8636 56.8335 23.8636ZM65.2939 13.3636H63.8372V21H65.2939V17.8281H68.6V21H70.0517V13.3636H68.6V16.5405H65.2939V13.3636ZM71.0932 14.6463H73.5939V21H75.0456V14.6463H77.5364V13.3636H71.0932V14.6463Z" fill="black"/>
</svg>
